# xmcd
#
# Track frame offsets:
#	150
#	14565
#	31037
#	47916
#	63688
#	78868
#	98925
#	112611
#	128862
#	143005
#	158233
#	174383
#	191658
#	209702
#	228527
#	246116
#	263319
#	279683
#
# Disc length: 3916 seconds
#
# Revision: 0
# Processed by: cddbd v1.5.2PL0 Copyright (c) Steve Scherf et al.
# Submitted via: EasyCDDAExtractor 9.0.0.1
#
DISCID=f60f4a12
DTITLE=Nelson e Davi - Acústico Volume 2
DYEAR=2005
DGENRE=Country
TTITLE0=Locutor
TTITLE1=Tudo por você
TTITLE2=A culpa é sua
TTITLE3=Vou te amar
TTITLE4=Barco de papel
TTITLE5=Pout-Pourri Telefone Mudo - Sublime Renúncia - Blusa Vermelha
TTITLE6=Amor de Novela
TTITLE7=Não Vá
TTITLE8=Pra nunca dizer adeus
TTITLE9=Tá rolando um amor
TTITLE10=Sonho de amor
TTITLE11=Roupa de Lua de mel
TTITLE12=Pout-Pourri Vá pro inferno com seu amor - Sorriso Mudo - Ela fez minh
TTITLE12=a cabeça
TTITLE13=Talvez seja amor
TTITLE14=Eu nasci pra te amar
TTITLE15=Se um dia eu tiver você
TTITLE16=Sem ela
TTITLE17=(Bonus Track) Locutor
EXTD=
EXTT0=
EXTT1=
EXTT2=
EXTT3=
EXTT4=
EXTT5=
EXTT6=
EXTT7=
EXTT8=
EXTT9=
EXTT10=
EXTT11=
EXTT12=
EXTT13=
EXTT14=
EXTT15=
EXTT16=
EXTT17=
PLAYORDER=
